# AST/ASF file generated using VICON BodyLanguage
# -----------------------------------------------
:version 1.10
:name VICON
:units
  mass 1.0
  length 0.45
  angle deg
:documentation
   .ast/.asf automatically generated from VICON data using
   VICON BodyBuilder and BodyLanguage model FoxedUp or BRILLIANT.MOD
:root
   order TX TY TZ RX RY RZ
   axis XYZ
   position 0 0 0  
   orientation 0 0 0 
:bonedata
  begin
     id 1 
     name lhipjoint
     direction 0.678564 -0.644259 0.352817 
     length 2.99514 
     axis 0 0 0  XYZ
  end
  begin
     id 2 
     name lfemur
     direction 0.34202 -0.939693 0  
     length 7.29983  
     axis 0 0 20  XYZ
    dof rx ry rz
    limits (-160.0 20.0)
           (-70.0 70.0)
           (-60.0 70.0)
  end
  begin
     id 3 
     name ltibia
     direction 0.34202 -0.939693 0   
     length 8.59502   
     axis 0 0 20   XYZ
    dof rx
    limits (-10.0 170.0)
  end
  begin
     id 4 
     name lfoot
     direction 0.256607 -0.705022 0.661133   
     length 2.92136   
     axis -90 7.62852e-016 20   XYZ
    dof rx rz
    limits (-45.0 90.0)
           (-70.0 20.0)
  end
  begin
     id 5 
     name ltoes
     direction 1.53673e-011 -4.22167e-011 1   
     length 1.31421   
     axis -90 7.62852e-016 20   XYZ
    dof rx
    limits (-90.0 20.0)
  end
  begin
     id 6 
     name rhipjoint
     direction -0.664671 -0.655307 0.358867   
     length 2.94464  
     axis 0 0 0  XYZ 
  end
  begin
     id 7 
     name rfemur
     direction -0.34202 -0.939693 0   
     length 7.1902   
     axis 0 0 -20   XYZ
    dof rx ry rz
    limits (-160.0 20.0)
           (-70.0 70.0)
           (-70.0 60.0)
  end
  begin
     id 8 
     name rtibia
     direction -0.342306 -0.939589 0   
     length 7.92304   
     axis 0 0 -20   XYZ
    dof rx
    limits (-10.0 170.0)
 end
 begin
     id 9 
     name rfoot
     direction -0.135083 -0.371136 0.9187   
     length 2.14777  
     axis -90 -7.62852e-016 -20   XYZ
    dof rx rz
    limits (-45.0 90.0)
           (-20.0 70.0)
  end
  begin
     id 10 
     name rtoes
     direction -1.53535e-011 -4.21537e-011 1   
     length 1.05997   
     axis -90 -7.62852e-016 -20   XYZ
    dof rx
    limits (-90.0 20.0)
  end
  begin
     id 11 
     name lowerback
     direction -0.0195507 0.995133 0.0965771   
     length 2.09792   
     axis 0 0 0   XYZ
    dof rx ry rz
    limits (-20.0 45.0)
           (-30.0 30.0)
           (-30.0 30.0)
  end
  begin
     id 12 
     name upperback
     direction 0.00551419 0.999637 0.0263729   
     length 2.10514   
     axis 0 0 0   XYZ
    dof rx ry rz
    limits (-20.0 45.0)
           (-30.0 30.0)
           (-30.0 30.0)
  end
  begin
     id 13 
     name thorax
     direction 0.0138853 0.999728 -0.0187549   
     length 2.12411   
     axis 0 0 0   XYZ
    dof rx ry rz
    limits (-20.0 45.0)
           (-30.0 30.0)
           (-30.0 30.0)
  end
  begin
     id 14 
     name lowerneck
     direction 0.00575564 0.995441 0.0952053   
     length 2.98955   
     axis 0 0 0   XYZ
    dof rx ry rz
    limits (-20.0 45.0)
           (-30.0 30.0)
           (-30.0 30.0)
  end
  begin
     id 15 
     name upperneck
     direction 0.0362743 0.998452 -0.0421753   
     length 3.03688   
     axis 0 0 0   XYZ
    dof rx ry rz
    limits (-20.0 45.0)
           (-30.0 30.0)
           (-30.0 30.0)
  end
  begin
     id 16
     name head
     direction -0.0138164 0.799054 0.6011  
     length 1.47017  
     axis 0 0 0   XYZ
    dof rx ry rz
    limits (-20.0 45.0)
           (-30.0 30.0)
           (-30.0 30.0)
  end
  begin
     id 17 
     name lclavicle
     direction 0.925636 0.378361 -0.006363  
     length 3.33831  
     axis 0 0 0   XYZ
    dof ry rz
    limits (-20.0 10.0)
           (0.0 20.0)
  end
  begin
     id 18 
     name lhumerus
     direction 1 -4.48983e-011 -5.50319e-028   
     length 4.79344   
     axis -180 -30 -90   XYZ
    dof rx ry rz
    limits (-60.0 90.0)
           (-90.0 90.0)
           (-90.0 90.0)
  end
  begin
     id 19
     name lradius
     direction 1 -4.48905e-011 9.20478e-027   
     length 2.94221   
     axis -180 -30 -90   XYZ
    dof rx
    limits (-10.0 170.0)
  end
  begin
     id 20
     name lwrist
     direction 1 -4.4898e-011 2.08228e-026   
     length 1.4711   
     axis -1.38353e-014 90 90   XYZ
    dof ry
    limits (-180.0 0.0)
 end
  begin
     id 21 
     name lhand
     direction 1 -4.48957e-011 4.16456e-026   
     length 0.889984   
     axis -2.65735e-014 90 90   XYZ
    dof rx rz
    limits (-90.0 90.0)
           (-45.0 45.0)
  end
  begin
     id 22 
     name lfingers
     direction 1 -4.49044e-011 8.32913e-026   
     length 0.717528   
     axis -5.3147e-014 90 90   XYZ
    dof rx
    limits (0.0 90.0)
  end
  begin
     id 23
     name lthumb
     direction 0.707107 -6.35171e-011 0.707107   
     length 1.03023   
     axis -90 45 2.85299e-015   XYZ
    dof rx rz
    limits (-45.0 45.0)
           (-45.0 45.0)
  end
  begin
     id 24 
     name rclavicle
     direction -0.892514 0.445149 0.0725343   
     length 3.17271  
     axis 0 0 0   XYZ 
    dof ry rz
    limits (-10.0 20.0)
           (-20.0 0.0)
  end
  begin
     id 25 
     name rhumerus
     direction -1 -4.48952e-011 5.59695e-028  
     length 5.4863   
     axis -180 30 90   XYZ
    dof rx ry rz
    limits (-90.0 60.0)
           (-90.0 90.0)
           (-90.0 90.0)
  end
  begin
     id 26 
     name rradius
     direction -1 -4.48963e-011 1.14146e-026   
     length 3.17201   
     axis -180 30 90   XYZ
    dof rx
    limits (-10.0 170.0)
  end
  begin
     id 27 
     name rwrist
     direction -1 -4.49046e-011 2.08228e-026   
     length 1.58601   
     axis -1.38353e-014 -90 -90   XYZ
    dof ry
    limits (-180.0 0.0)
  end
  begin
     id 28
     name rhand
     direction -1 -4.48815e-011 4.16456e-026   
     length 0.874513   
     axis -2.65735e-014 -90 -90   XYZ
    dof rx rz
    limits (-90.0 90.0)
           (-45.0 45.0)
  end
  begin
     id 29
     name rfingers
     direction -1 -4.48918e-011 8.32913e-026   
     length 0.705055   
     axis -5.3147e-014 -90 -90   XYZ
    dof rx
    limits (0.0 90.0)
  end
  begin
     id 30
     name rthumb
     direction -0.707107 -6.34858e-011 0.707107   
     length 1.01232   
     axis -90 -45 -2.85299e-015   XYZ
    dof rx rz
    limits (-45.0 45.0)
           (-45.0 45.0)
  end
:hierarchy
  begin
    root lhipjoint rhipjoint lowerback
    lhipjoint lfemur
    lfemur ltibia
    ltibia lfoot
    lfoot ltoes
    rhipjoint rfemur
    rfemur rtibia
    rtibia rfoot
    rfoot rtoes
    lowerback upperback
    upperback thorax
    thorax lowerneck lclavicle rclavicle
    lowerneck upperneck
    upperneck head
    lclavicle lhumerus
    lhumerus lradius
    lradius lwrist
    lwrist lhand lthumb
    lhand lfingers
    rclavicle rhumerus
    rhumerus rradius
    rradius rwrist
    rwrist rhand rthumb
    rhand rfingers
  end

#!OML:ASF F:\VICON\USERDATA\INSTALL\rory3\rory3.ASF
:FULLY-SPECIFIED
:DEGREES
1684
root 3.29231 18.5074 -1.58078 -96.302 85.6248 -111.082
lowerback -9.47233 -1.3041 -8.91932
upperback -3.08833 -0.466499 -5.26881
thorax 2.12609 -0.11021 -0.538546
lowerneck -17.918 -9.14173 -10.6973
upperneck 3.85321 41.2529 2.12923
head 25.215 53.9127 175.035
rclavicle -3.77691e-015 3.18055e-015
rhumerus -106.455 44.3679 -130.201
rradius 96.4642
rwrist 19.2297
rhand -46.3859 4.06652
rfingers 7.12502
rthumb -19.1168 -25.014
lclavicle -3.77691e-015 3.18055e-015
lhumerus -22.6392 37.0669 35.0798
lradius 112.491
lwrist 6.3031
lhand -10.4632 15.6174
lfingers 7.12502
lthumb 15.5375 45.0132
rfemur -14.1946 14.2958 18.946
rtibia 12.1876
rfoot -15.5765 -17.795
rtoes -15.0666
lfemur -17.993 -6.87196 -20.2309
ltibia 21.3323
lfoot -3.3574 6.59842
ltoes -10.8386
1685
root 3.28298 18.5106 -1.59137 -95.3882 85.5195 -110.127
lowerback -9.41312 -1.30149 -9.08391
upperback -2.96668 -0.435805 -5.40597
thorax 2.21954 -0.0987318 -0.588535
lowerneck -17.9009 -9.10038 -10.8721
upperneck 3.85264 41.2943 2.12374
head 25.1842 54.2239 174.985
rclavicle -1.43125e-014 -1.30403e-013
rhumerus -106.526 44.475 -130.415
rradius 96.4807
rwrist 19.2287
rhand -46.474 3.74373
rfingers 7.12502
rthumb -19.2015 -25.3284
lclavicle -1.43125e-014 -1.30403e-013
lhumerus -22.3123 37.6135 35.2934
lradius 111.81
lwrist 6.13718
lhand -10.4728 15.7456
lfingers 7.12502
lthumb 15.5283 45.1421
rfemur -14.1213 14.1294 19.0627
rtibia 12.0392
rfoot -15.1663 -17.6421
rtoes -15.6389
lfemur -18.0265 -6.84379 -20.1325
ltibia 21.4198
lfoot -3.31658 6.64567
ltoes -10.9974
1686
root 3.27498 18.5132 -1.603 -93.7858 85.362 -108.453
lowerback -9.39417 -1.26806 -9.19731
upperback -2.81046 -0.36644 -5.48545
thorax 2.36953 -0.0726986 -0.602809
lowerneck -17.9316 -9.0732 -11.1034
upperneck 3.80185 41.2697 2.05257
head 25.1267 54.4384 174.967
rclavicle -9.74045e-015 -3.18055e-015
rhumerus -106.534 44.6302 -130.494
rradius 96.5013
rwrist 19.2481
rhand -46.5349 3.49601
rfingers 7.12502
rthumb -19.2601 -25.5703
lclavicle -9.74045e-015 -3.18055e-015
lhumerus -21.9493 38.0938 35.5695
lradius 111.115
lwrist 5.97288
lhand -10.665 15.7795
lfingers 7.12502
lthumb 15.3432 45.1903
rfemur -14.0628 13.9619 19.2528
rtibia 11.968
rfoot -14.8622 -17.4062
rtoes -16.0667
lfemur -17.9974 -6.8156 -19.9773
ltibia 21.4796
lfoot -3.16708 6.63597
ltoes -11.0506
1687
root 3.26772 18.5157 -1.6141 -92.4358 85.2122 -107.026
lowerback -9.32351 -1.19437 -9.28407
upperback -2.70329 -0.252219 -5.6248
thorax 2.43665 -0.0192622 -0.688148
lowerneck -17.8505 -9.07307 -11.3127
upperneck 3.80069 41.2472 2.03801
head 25.0933 54.7659 174.947
rclavicle 5.76476e-015 -8.90555e-014
rhumerus -106.433 44.6472 -130.52
rradius 96.5394
rwrist 19.0419
rhand -46.5421 3.64479
rfingers 7.12502
rthumb -19.267 -25.4208
lclavicle 5.76476e-015 -8.90555e-014
lhumerus -21.5741 38.3909 35.8115
lradius 110.431
lwrist 5.81705
lhand -10.9157 15.5765
lfingers 7.12502
lthumb 15.1017 45.0056
rfemur -14.032 13.8125 19.4231
rtibia 11.977
rfoot -14.6961 -17.1724
rtoes -16.1638
lfemur -17.9345 -6.87087 -19.8241
ltibia 21.5153
lfoot -3.00944 6.58639
ltoes -10.9888
1688
root 3.25988 18.5191 -1.62403 -91.4047 85.1409 -105.92
lowerback -9.20408 -1.16195 -9.47433
upperback -2.63573 -0.189607 -5.77957
thorax 2.43831 0.0128958 -0.738102
lowerneck -17.7209 -9.04388 -11.4907
upperneck 3.86472 41.399 2.06883
head 25.1751 55.2469 175.01
rclavicle 8.15017e-015 5.40694e-014
rhumerus -106.565 44.713 -130.773
rradius 96.6089
rwrist 18.866
rhand -46.6069 3.87846
rfingers 7.12502
rthumb -19.3294 -25.1809
lclavicle 8.15017e-015 5.40694e-014
lhumerus -21.3844 38.6058 35.8678
lradius 109.775
lwrist 5.75015
lhand -11.126 15.402
lfingers 7.12502
lthumb 14.8991 44.8462
rfemur -13.968 13.5732 19.52
rtibia 11.9198
rfoot -14.419 -16.8927
rtoes -16.3341
lfemur -17.8962 -6.88637 -19.7718
ltibia 21.5798
lfoot -2.90358 6.58078
ltoes -11.048
1689
root 3.24941 18.522 -1.63217 -90.5727 85.0767 -105.061
lowerback -9.135 -1.17271 -9.67585
upperback -2.5496 -0.174985 -5.91552
thorax 2.49027 0.0190701 -0.768762
lowerneck -17.6985 -8.99829 -11.6526
upperneck 3.88876 41.56 2.05676
head 25.259 55.611 175.095
rclavicle 5.96354e-015 -8.90555e-014
rhumerus -106.857 44.8698 -131.173
rradius 96.7192
rwrist 18.7657
rhand -46.8901 3.91177
rfingers 7.12502
rthumb -19.6016 -25.1201
lclavicle 5.96354e-015 -8.90555e-014
lhumerus -21.1688 38.8898 35.9458
lradius 109.138
lwrist 5.7882
lhand -11.2343 15.2706
lfingers 7.12502
lthumb 14.7948 44.7225
rfemur -13.9461 13.3151 19.6066
rtibia 11.81
rfoot -14.0715 -16.6546
rtoes -16.9233
lfemur -17.9511 -6.87939 -19.7169
ltibia 21.6751
lfoot -2.83875 6.58176
ltoes -11.1271
1690
root 3.23998 18.5251 -1.64087 -89.525 84.8754 -103.95
lowerback -9.03956 -1.1378 -9.69263
upperback -2.42822 -0.12217 -6.03879
thorax 2.56228 0.0412107 -0.883064
lowerneck -17.7457 -8.98393 -11.7752
upperneck 3.83814 41.5063 2.00857
head 25.2055 55.7248 175.071
rclavicle -1.51076e-014 0
rhumerus -106.971 45.0037 -131.466
rradius 96.7679
rwrist 18.6975
rhand -47.1587 3.75626
rfingers 7.12502
rthumb -19.8599 -25.249
lclavicle -1.51076e-014 0
lhumerus -20.7815 39.1355 36.1378
lradius 108.474
lwrist 5.78497
lhand -11.3286 15.1004
lfingers 7.12502
lthumb 14.7039 44.5589
rfemur -13.9023 13.0684 19.8543
rtibia 11.7366
rfoot -13.7354 -16.3871
rtoes -17.1632
lfemur -17.9671 -6.87166 -19.5075
ltibia 21.7798
lfoot -2.77673 6.53906
ltoes -11.1139
1691
root 3.23445 18.5267 -1.65112 -88.246 84.6471 -102.574
lowerback -8.96688 -1.05462 -9.66752
upperback -2.29816 -0.0068501 -6.15223
thorax 2.65292 0.0930341 -1.00333
lowerneck -17.7444 -8.9712 -11.9616
upperneck 3.80536 41.4403 1.98232
head 25.1 55.9231 174.958
rclavicle 3.97569e-016 -2.54444e-014
rhumerus -106.874 45.052 -131.554
rradius 96.7808
rwrist 18.6124
rhand -47.2743 3.66874
rfingers 7.12502
rthumb -19.971 -25.325
lclavicle 3.97569e-016 -2.54444e-014
lhumerus -20.4687 39.1678 36.351
lradius 107.879
lwrist 5.78443
lhand -11.5016 14.8916
lfingers 7.12502
lthumb 14.5373 44.3623
rfemur -13.8251 12.7971 20.1389
rtibia 11.7124
rfoot -13.5121 -16.0616
rtoes -17.0514
lfemur -17.9118 -6.84019 -19.2887
ltibia 21.8738
lfoot -2.66066 6.56569
ltoes -11.2084
1692
root 3.22821 18.5297 -1.66071 -87.1992 84.4858 -101.474
lowerback -8.92062 -1.00097 -9.76468
upperback -2.19612 0.0807259 -6.22154
thorax 2.7303 0.131805 -1.01356
lowerneck -17.7145 -8.93253 -12.2405
upperneck 3.81491 41.5545 1.95251
head 25.1028 56.3315 174.944
rclavicle 2.38542e-015 5.40694e-014
rhumerus -106.899 45.1089 -131.629
rradius 96.7851
rwrist 18.5289
rhand -47.4154 3.68318
rfingers 7.12502
rthumb -20.1066 -25.2964
lclavicle 2.38542e-015 5.40694e-014
lhumerus -20.3362 39.1882 36.5441
lradius 107.367
lwrist 5.96736
lhand -11.78 14.721
lfingers 7.12502
lthumb 14.269 44.2108
rfemur -13.7883 12.589 20.3322
rtibia 11.6867
rfoot -13.323 -15.848
rtoes -17.4424
lfemur -17.9231 -6.86712 -19.1311
ltibia 21.9726
lfoot -2.5228 6.55522
ltoes -11.1703
1693
root 3.22149 18.5351 -1.66872 -86.3501 84.4182 -100.592
lowerback -8.82521 -0.966134 -9.97388
upperback -2.1363 0.147161 -6.32039
thorax 2.73684 0.164609 -0.995271
lowerneck -17.6467 -8.91473 -12.4535
upperneck 3.83845 41.6804 1.92107
head 25.1766 56.6684 175.043
rclavicle -1.43125e-014 1.49486e-013
rhumerus -106.941 45.1244 -131.784
rradius 96.7325
rwrist 18.4891
rhand -47.5783 3.66192
rfingers 7.12502
rthumb -20.2632 -25.3011
lclavicle -1.43125e-014 1.49486e-013
lhumerus -20.1418 39.2277 36.6996
lradius 106.846
lwrist 6.25656
lhand -12.0197 14.4956
lfingers 7.12502
lthumb 14.038 44.0015
rfemur -13.8168 12.4919 20.3897
rtibia 11.7272
rfoot -13.2336 -15.6872
rtoes -17.896
lfemur -17.9519 -6.89236 -19.0714
ltibia 22.0548
lfoot -2.40909 6.52734
ltoes -11.0958
1694
root 3.21262 18.5382 -1.67837 -85.753 84.2753 -99.9629
lowerback -8.72008 -0.923277 -10.0479
upperback -2.05189 0.214757 -6.46252
thorax 2.76454 0.197688 -1.0967
lowerneck -17.6281 -8.9156 -12.5295
upperneck 3.84115 41.7107 1.92294
head 25.2198 56.9087 175.09
rclavicle -1.94809e-014 -2.22639e-014
rhumerus -106.787 45.1174 -131.892
rradius 96.6532
rwrist 18.4527
rhand -47.7436 3.76282
rfingers 7.12502
rthumb -20.422 -25.1833
lclavicle -1.94809e-014 -2.22639e-014
lhumerus -19.8124 39.1331 36.8261
lradius 106.29
lwrist 6.2722
lhand -12.2933 14.3385
lfingers 7.12502
lthumb 13.7743 43.8625
rfemur -13.9056 12.3597 20.5252
rtibia 11.8331
rfoot -13.0419 -15.4927
rtoes -17.5462
lfemur -17.983 -6.8884 -18.9432
ltibia 22.1388
lfoot -2.32999 6.52169
ltoes -11.0997
1695
root 3.20359 18.5406 -1.68893 -85.5321 84.1353 -99.7077
lowerback -8.64541 -0.917479 -10.161
upperback -1.92087 0.241533 -6.54624
thorax 2.86013 0.205491 -1.12068
lowerneck -17.6968 -8.8988 -12.6808
upperneck 3.78563 41.6871 1.86197
head 25.195 57.0774 175.098
rclavicle 1.31198e-014 3.81667e-014
rhumerus -106.621 45.2311 -131.877
rradius 96.6316
rwrist 18.4723
rhand -47.9393 3.77068
rfingers 7.12502
rthumb -20.61 -25.1551
lclavicle 1.31198e-014 3.81667e-014
lhumerus -19.5888 39.0609 36.9039
lradius 105.797
lwrist 5.98333
lhand -12.2966 14.4109
lfingers 7.12502
lthumb 13.7711 43.9351
rfemur -14.0031 12.1228 20.6706
rtibia 11.9816
rfoot -12.9421 -15.2489
rtoes -17.0375
lfemur -18.0025 -6.94125 -18.8179
ltibia 22.2251
lfoot -2.23716 6.52701
ltoes -11.1621
1696
root 3.1973 18.5413 -1.69848 -85.0369 84.0047 -99.2017
lowerback -8.6076 -0.908131 -10.3048
upperback -1.84438 0.274238 -6.59743
thorax 2.91805 0.218246 -1.09292
lowerneck -17.6815 -8.87365 -12.8744
upperneck 3.77991 41.7674 1.80307
head 25.2132 57.24 175.155
rclavicle 1.19271e-015 4.77083e-014
rhumerus -106.598 45.3716 -131.863
rradius 96.6531
rwrist 18.4363
rhand -48.0516 3.78008
rfingers 7.12502
rthumb -20.7179 -25.134
lclavicle 1.19271e-015 4.77083e-014
lhumerus -19.5012 38.9553 37.0117
lradius 105.39
lwrist 5.69426
lhand -12.3227 14.4405
lfingers 7.12502
lthumb 13.746 43.9664
rfemur -14.1128 11.7895 20.8408
rtibia 12.1413
rfoot -12.7831 -14.9377
rtoes -17.9266
lfemur -18.0573 -6.9558 -18.7029
ltibia 22.3269
lfoot -2.13015 6.47118
ltoes -11.2067
